<svg width="247" height="120" viewBox="0 0 247 120" fill="none" xmlns="http://www.w3.org/2000/svg">
<g filter="url(#filter0_ii)">
<path d="M60.04 40.124C60.04 43.2653 59.1787 46.0773 57.456 48.56C55.7333 50.992 53.3773 53.0187 50.388 54.64C52.3133 55.9573 53.8333 57.5787 54.948 59.504C56.1133 61.3787 56.696 63.456 56.696 65.736C56.696 68.472 55.86 71.1827 54.188 73.868C52.5667 76.5027 50.388 78.8587 47.652 80.936C44.916 82.9627 41.8 84.6093 38.304 85.876C34.808 87.1427 31.236 87.776 27.588 87.776C23.636 87.776 20.1653 87.016 17.176 85.496C14.2373 84.0267 11.932 81.924 10.26 79.188C10.7667 77.668 11.4253 75.7933 12.236 73.564C13.0973 71.284 14.0347 68.9027 15.048 66.42C16.0613 63.8867 17.0747 61.3787 18.088 58.896C19.152 56.4133 20.14 54.184 21.052 52.208C22.9773 47.9013 24.7 44.3293 26.22 41.492C27.74 38.6547 29.1333 36.4 30.4 34.728C27.6133 35.5893 25.08 36.5773 22.8 37.692C20.52 38.756 18.848 39.7947 17.784 40.808C17.328 40.504 16.8467 40.048 16.34 39.44C15.884 38.832 15.428 38.1733 14.972 37.464C14.5667 36.704 14.212 35.944 13.908 35.184C13.6547 34.424 13.5027 33.74 13.452 33.132C14.7693 32.22 16.4667 31.3587 18.544 30.548C20.672 29.6867 22.9773 28.952 25.46 28.344C27.9427 27.736 30.476 27.2547 33.06 26.9C35.6947 26.5453 38.2027 26.368 40.584 26.368C46.664 26.368 51.4267 27.584 54.872 30.016C58.3173 32.448 60.04 35.8173 60.04 40.124ZM31.084 58.288C30.1213 57.832 29.2347 57.148 28.424 56.236C27.2587 58.82 26.144 61.3533 25.08 63.836C24.0667 66.3187 23.1547 68.624 22.344 70.752C21.5333 72.88 20.8747 74.7293 20.368 76.3C19.8613 77.8707 19.5827 79.0107 19.532 79.72C20.2413 80.1253 21.0773 80.4293 22.04 80.632C23.0533 80.8347 24.2947 80.936 25.764 80.936C29.2093 80.936 32.5027 80.4547 35.644 79.492C38.7853 78.5293 41.5467 77.2373 43.928 75.616C46.3093 73.944 48.2093 72.044 49.628 69.916C51.0467 67.788 51.756 65.5587 51.756 63.228C51.756 59.884 50.312 57.4773 47.424 56.008C43.472 57.6293 39.0133 58.44 34.048 58.44C33.3387 58.44 32.7813 58.44 32.376 58.44C32.0213 58.44 31.5907 58.3893 31.084 58.288ZM45.828 31.916C44.764 31.916 43.624 31.992 42.408 32.144C41.2427 32.2453 40.0013 32.4227 38.684 32.676C38.8867 32.8787 39.0387 33.1067 39.14 33.36C39.292 33.5627 39.4187 33.7907 39.52 34.044C39.064 34.652 38.5067 35.5387 37.848 36.704C37.1893 37.8693 36.4547 39.2373 35.644 40.808C34.8333 42.328 33.972 44.0253 33.06 45.9C32.1987 47.7747 31.312 49.7 30.4 51.676C31.2613 51.4733 32.3 51.3213 33.516 51.22C34.7827 51.068 36.024 50.992 37.24 50.992C37.8987 50.992 38.532 51.0173 39.14 51.068C39.7987 51.1187 40.432 51.1947 41.04 51.296C43.472 50.8907 45.6507 50.308 47.576 49.548C49.552 48.7373 51.2493 47.8253 52.668 46.812C54.0867 45.748 55.176 44.5827 55.936 43.316C56.696 42.0493 57.076 40.7067 57.076 39.288C57.076 36.856 56.1133 35.032 54.188 33.816C52.2627 32.5493 49.476 31.916 45.828 31.916ZM70.5939 84.66C67.7059 84.356 65.4006 83.0893 63.6779 80.86C61.9552 78.6307 61.0939 75.7933 61.0939 72.348C61.0939 70.3213 61.3979 68.2187 62.0059 66.04C62.6139 63.8613 63.4752 61.7587 64.5899 59.732C65.7046 57.6547 67.0219 55.704 68.5419 53.88C70.0619 52.056 71.7086 50.4853 73.4819 49.168C76.2686 47.0907 78.8779 46.052 81.3099 46.052C82.9312 46.9133 84.5272 48.712 86.0979 51.448C86.3512 51.448 86.5792 51.448 86.7819 51.448C86.9846 51.3973 87.2126 51.372 87.4659 51.372C90.1512 51.372 91.4939 53.7533 91.4939 58.516C91.4939 61.708 90.9619 64.748 89.8979 67.636C88.8846 70.4733 87.4406 73.0573 85.5659 75.388C83.7419 77.7187 81.5379 79.6947 78.9539 81.316C76.4206 82.8867 73.6339 84.0013 70.5939 84.66ZM74.4699 60.72C73.6086 61.8853 72.7979 63.152 72.0379 64.52C71.2779 65.888 70.6192 67.2813 70.0619 68.7C69.5046 70.068 69.0739 71.4107 68.7699 72.728C68.4659 73.9947 68.3139 75.1347 68.3139 76.148C68.3139 77.364 68.5166 78.5293 68.9219 79.644C69.3272 80.7587 69.7832 81.392 70.2899 81.544C72.5699 81.0373 74.6472 80.1 76.5219 78.732C78.4472 77.3133 80.0939 75.5653 81.4619 73.488C82.8806 71.4107 83.9699 69.0547 84.7299 66.42C85.5406 63.7853 85.9459 60.9733 85.9459 57.984C85.9459 56.6667 85.8699 55.628 85.7179 54.868C85.5659 54.108 85.3126 53.4493 84.9579 52.892C82.7286 53.5507 80.7272 54.6147 78.9539 56.084C77.2312 57.5533 75.7366 59.0987 74.4699 60.72ZM104.141 84.66C101.253 84.356 98.9474 83.0893 97.2248 80.86C95.5021 78.6307 94.6408 75.7933 94.6408 72.348C94.6408 70.3213 94.9448 68.2187 95.5528 66.04C96.1608 63.8613 97.0221 61.7587 98.1368 59.732C99.2514 57.6547 100.569 55.704 102.089 53.88C103.609 52.056 105.255 50.4853 107.029 49.168C109.815 47.0907 112.425 46.052 114.857 46.052C116.478 46.9133 118.074 48.712 119.645 51.448C119.898 51.448 120.126 51.448 120.329 51.448C120.531 51.3973 120.759 51.372 121.013 51.372C123.698 51.372 125.041 53.7533 125.041 58.516C125.041 61.708 124.509 64.748 123.445 67.636C122.431 70.4733 120.987 73.0573 119.113 75.388C117.289 77.7187 115.085 79.6947 112.501 81.316C109.967 82.8867 107.181 84.0013 104.141 84.66ZM108.017 60.72C107.155 61.8853 106.345 63.152 105.585 64.52C104.825 65.888 104.166 67.2813 103.609 68.7C103.051 70.068 102.621 71.4107 102.317 72.728C102.013 73.9947 101.861 75.1347 101.861 76.148C101.861 77.364 102.063 78.5293 102.469 79.644C102.874 80.7587 103.33 81.392 103.837 81.544C106.117 81.0373 108.194 80.1 110.069 78.732C111.994 77.3133 113.641 75.5653 115.009 73.488C116.427 71.4107 117.517 69.0547 118.277 66.42C119.087 63.7853 119.493 60.9733 119.493 57.984C119.493 56.6667 119.417 55.628 119.265 54.868C119.113 54.108 118.859 53.4493 118.505 52.892C116.275 53.5507 114.274 54.6147 112.501 56.084C110.778 57.5533 109.283 59.0987 108.017 60.72ZM128.872 74.856C128.872 73.032 129.328 70.4987 130.24 67.256C131.202 64.0133 132.444 60.4667 133.964 56.616C135.484 52.7653 137.206 48.788 139.132 44.684C141.057 40.58 142.982 36.7547 144.908 33.208C146.884 29.6613 148.758 26.596 150.532 24.012C152.356 21.428 153.901 19.68 155.168 18.768C155.877 18.8187 156.637 19.1227 157.448 19.68C158.309 20.2373 159.094 20.9213 159.804 21.732C160.513 22.492 161.096 23.3027 161.552 24.164C162.058 25.0253 162.312 25.8107 162.312 26.52C160.032 28.344 157.701 30.7 155.32 33.588C152.989 36.4253 150.76 39.5667 148.632 43.012C146.504 46.4067 144.528 50.0293 142.704 53.88C140.93 57.68 139.436 61.4293 138.22 65.128C139.841 62.3413 141.538 59.808 143.312 57.528C145.085 55.248 146.858 53.2973 148.632 51.676C150.405 50.0547 152.128 48.8133 153.8 47.952C155.522 47.04 157.144 46.5587 158.664 46.508C160.893 48.1293 162.008 50.2827 162.008 52.968C162.008 54.5893 161.678 56.236 161.02 57.908C160.361 59.5293 159.474 61.0493 158.36 62.468C157.296 63.836 156.054 65.0267 154.636 66.04C153.268 67.0027 151.824 67.636 150.304 67.94C150.81 69.7133 151.444 71.512 152.204 73.336C153.014 75.16 153.952 76.9333 155.016 78.656C156.13 80.3787 157.372 81.9747 158.74 83.444C160.158 84.9133 161.754 86.1547 163.528 87.168C163.274 87.6747 162.894 88.1813 162.388 88.688C161.881 89.1947 161.273 89.6253 160.564 89.98C159.854 90.3853 159.069 90.6893 158.208 90.892C157.397 91.1453 156.586 91.272 155.776 91.272C154.408 91.272 153.116 90.588 151.9 89.22C150.734 87.852 149.67 85.876 148.708 83.292C147.948 81.2147 147.213 78.732 146.504 75.844C145.794 72.956 145.161 69.9413 144.604 66.8C145.313 66.344 146.2 65.6853 147.264 64.824C148.328 63.912 149.442 62.8733 150.608 61.708C155.066 57.4013 157.296 53.6773 157.296 50.536C157.296 50.1307 157.017 49.928 156.46 49.928C155.446 49.9787 154.256 50.46 152.888 51.372C151.52 52.284 150.05 53.5507 148.48 55.172C146.96 56.7933 145.389 58.6933 143.768 60.872C142.197 63.0507 140.677 65.4067 139.208 67.94C138.6 68.9533 138.042 70.1187 137.536 71.436C137.029 72.7533 136.573 74.1213 136.168 75.54C135.813 76.908 135.534 78.276 135.332 79.644C135.129 81.012 135.028 82.2787 135.028 83.444C135.028 84.1533 135.104 84.736 135.256 85.192C133.685 85.04 132.722 84.6347 132.368 83.976C131.962 83.368 131.608 82.8613 131.304 82.456C131.05 82.1013 130.772 81.7973 130.468 81.544C130.012 81.1893 129.632 80.4293 129.328 79.264C129.024 78.0987 128.872 76.6293 128.872 74.856ZM166.573 76.908C166.573 76.452 166.598 75.8947 166.649 75.236C166.75 74.5267 166.902 73.6147 167.105 72.5C167.308 71.3347 167.561 69.9413 167.865 68.32C168.22 66.6987 168.65 64.748 169.157 62.468C169.258 61.9613 169.486 61.1507 169.841 60.036C170.196 58.9213 170.652 57.756 171.209 56.54C171.817 55.2733 172.526 54.0573 173.337 52.892C174.198 51.7267 175.212 50.8653 176.377 50.308C177.238 50.5107 178.378 51.0427 179.797 51.904C181.216 52.7147 182.432 53.8547 183.445 55.324C182.28 56.6413 181.292 57.9587 180.481 59.276C179.721 60.5933 179.012 61.9613 178.353 63.38C177.745 64.7987 177.162 66.268 176.605 67.788C176.098 69.308 175.516 70.904 174.857 72.576C174.3 73.9947 173.793 75.464 173.337 76.984C172.881 78.4533 172.628 79.7453 172.577 80.86C172.577 81.772 172.552 82.4053 172.501 82.76C172.501 83.1653 172.374 83.368 172.121 83.368C171.918 83.368 171.513 83.2413 170.905 82.988C170.297 82.7347 169.664 82.3547 169.005 81.848C168.397 81.2907 167.84 80.6067 167.333 79.796C166.826 78.9853 166.573 78.0227 166.573 76.908ZM181.089 43.924C181.089 43.62 181.165 43.164 181.317 42.556C181.064 42.3027 180.836 41.9227 180.633 41.416C180.481 40.9093 180.405 40.4533 180.405 40.048C180.405 39.592 180.456 38.984 180.557 38.224C180.709 37.4133 180.886 36.552 181.089 35.64C181.292 34.728 181.545 33.7907 181.849 32.828C182.153 31.8147 182.457 30.9027 182.761 30.092C183.369 30.092 184.104 30.2693 184.965 30.624C185.877 30.928 186.789 31.3587 187.701 31.916C188.613 32.4227 189.449 33.0053 190.209 33.664C190.969 34.272 191.552 34.8547 191.957 35.412C191.4 35.9693 190.665 36.7547 189.753 37.768C188.841 38.7307 187.954 39.7693 187.093 40.884C186.232 41.948 185.446 42.9613 184.737 43.924C184.028 44.8867 183.572 45.5707 183.369 45.976C182.761 45.8747 182.229 45.6213 181.773 45.216C181.317 44.76 181.089 44.3293 181.089 43.924ZM188.118 103.964C186.852 103.457 186.092 102.495 185.838 101.076C185.636 99.708 184.774 98.5933 183.254 97.732C183.66 95.148 184.116 92.5387 184.622 89.904C185.129 87.2693 185.762 84.28 186.522 80.936C187.333 77.5413 188.321 73.6147 189.486 69.156C190.702 64.6467 192.222 59.2 194.046 52.816C192.374 52.816 191.057 52.8413 190.094 52.892C189.132 52.9427 188.194 53.044 187.282 53.196C187.08 52.9933 186.902 52.7147 186.75 52.36C186.649 52.0053 186.598 51.676 186.598 51.372C187.105 51.1693 188.144 50.916 189.714 50.612C191.285 50.2573 193.008 49.9533 194.882 49.7C196.098 45.8493 197.492 42.404 199.062 39.364C200.633 36.2733 202.33 33.6387 204.154 31.46C205.978 29.2813 207.904 27.6093 209.93 26.444C211.957 25.2787 214.009 24.696 216.086 24.696C216.694 24.696 217.277 24.7467 217.834 24.848C218.392 24.8987 218.822 24.924 219.126 24.924C219.582 24.5693 220.19 24.2653 220.95 24.012C221.71 23.708 222.369 23.556 222.926 23.556C223.534 23.556 224.32 23.8853 225.282 24.544C224.877 25.2533 224.446 26.216 223.99 27.432C223.534 28.648 223.154 29.8387 222.85 31.004C221.584 34.7533 220.241 37.1853 218.822 38.3C218.265 38.3 217.961 37.5653 217.91 36.096C217.86 35.032 217.708 33.9933 217.454 32.98C217.252 32.524 217.1 32.1187 216.998 31.764C216.948 31.4093 216.922 30.9533 216.922 30.396C216.922 30.092 216.948 29.7373 216.998 29.332C217.049 28.876 217.15 28.1413 217.302 27.128C216.441 27.128 215.478 27.66 214.414 28.724C213.401 29.788 212.312 31.308 211.146 33.284C210.032 35.2093 208.892 37.5147 207.726 40.2C206.561 42.8853 205.446 45.8493 204.382 49.092L210.766 48.864C211.02 49.1173 211.222 49.7 211.374 50.612C211.577 51.4733 211.704 52.3853 211.754 53.348L203.394 52.892C201.469 58.6173 199.67 64.0893 197.998 69.308C196.326 74.5267 194.832 79.34 193.514 83.748C192.197 88.156 191.057 92.0827 190.094 95.528C189.182 99.024 188.524 101.836 188.118 103.964ZM238.491 70.22C237.326 73.9187 236.16 77.288 234.995 80.328C233.83 83.368 232.588 86.1547 231.271 88.688C229.954 91.272 228.535 93.628 227.015 95.756C225.495 97.9347 223.823 99.9867 221.999 101.912C219.668 104.344 217.262 106.193 214.779 107.46C212.296 108.777 209.814 109.436 207.331 109.436C206.064 109.436 204.798 109.284 203.531 108.98C202.315 108.727 201.175 108.347 200.111 107.84C198.996 107.384 198.034 106.827 197.223 106.168C196.362 105.56 195.754 104.901 195.399 104.192C195.399 103.584 195.754 103.052 196.463 102.596C197.071 103.153 197.578 103.584 197.983 103.888C198.388 104.192 198.794 104.445 199.199 104.648C199.554 104.851 199.959 104.977 200.415 105.028C200.82 105.079 201.302 105.104 201.859 105.104C204.747 105.104 207.559 104.243 210.295 102.52C213.082 100.848 215.691 98.4413 218.123 95.3C220.606 92.2093 222.86 88.4347 224.887 83.976C226.914 79.568 228.636 74.628 230.055 69.156C229.396 70.1693 228.586 71.4107 227.623 72.88C226.66 74.3493 225.596 75.8187 224.431 77.288C223.266 78.7067 222.05 79.9987 220.783 81.164C219.567 82.3293 218.376 83.1147 217.211 83.52C216.4 83.4693 215.539 83.292 214.627 82.988C213.766 82.7347 212.93 82.3547 212.119 81.848C211.359 81.3413 210.675 80.7333 210.067 80.024C209.459 79.3147 209.054 78.504 208.851 77.592C208.851 76.1227 208.902 74.9573 209.003 74.096C209.104 73.184 209.282 72.196 209.535 71.132C209.991 69.2067 210.65 67.028 211.511 64.596C212.423 62.164 213.462 59.7827 214.627 57.452C215.843 55.0707 217.16 52.8667 218.579 50.84C220.048 48.7627 221.568 47.1413 223.139 45.976C223.544 45.976 224.051 46.0267 224.659 46.128C225.267 46.1787 225.9 46.3053 226.559 46.508C227.218 46.7107 227.851 46.964 228.459 47.268C229.067 47.5213 229.599 47.876 230.055 48.332C229.498 48.8387 228.282 50.536 226.407 53.424C224.532 56.312 222.455 60.4667 220.175 65.888C219.922 66.4453 219.618 67.256 219.263 68.32C218.908 69.384 218.554 70.4987 218.199 71.664C217.895 72.8293 217.616 73.9693 217.363 75.084C217.11 76.1987 216.983 77.0853 216.983 77.744C216.983 78.1493 217.034 78.4533 217.135 78.656C217.287 78.8587 217.414 79.0107 217.515 79.112C218.427 78.96 219.643 78.2253 221.163 76.908C222.683 75.54 224.406 73.4373 226.331 70.6C227.547 68.776 228.662 66.9773 229.675 65.204C230.688 63.38 231.676 61.556 232.639 59.732C233.652 57.908 234.691 56.0333 235.755 54.108C236.819 52.1827 237.959 50.2067 239.175 48.18C239.834 48.18 240.543 48.256 241.303 48.408C242.063 48.56 242.798 48.7627 243.507 49.016C244.216 49.2187 244.824 49.472 245.331 49.776C245.888 50.0293 246.294 50.308 246.547 50.612C244.976 53.956 243.507 57.224 242.139 60.416C240.771 63.608 239.555 66.876 238.491 70.22Z" fill="url(#paint0_linear)"/>
</g>
<g filter="url(#filter1_d)">
<line x1="14" y1="106.5" x2="168" y2="106.5" stroke="#FF482F" stroke-width="7"/>
</g>
<defs>
<filter id="filter0_ii" x="10.26" y="18.768" width="237.287" height="92.668" filterUnits="userSpaceOnUse" color-interpolation-filters="sRGB">
<feFlood flood-opacity="0" result="BackgroundImageFix"/>
<feBlend mode="normal" in="SourceGraphic" in2="BackgroundImageFix" result="shape"/>
<feColorMatrix in="SourceAlpha" type="matrix" values="0 0 0 0 0 0 0 0 0 0 0 0 0 0 0 0 0 0 127 0" result="hardAlpha"/>
<feOffset dx="1" dy="2"/>
<feGaussianBlur stdDeviation="2"/>
<feComposite in2="hardAlpha" operator="arithmetic" k2="-1" k3="1"/>
<feColorMatrix type="matrix" values="0 0 0 0 0 0 0 0 0 0 0 0 0 0 0 0 0 0 0.32 0"/>
<feBlend mode="normal" in2="shape" result="effect1_innerShadow"/>
<feColorMatrix in="SourceAlpha" type="matrix" values="0 0 0 0 0 0 0 0 0 0 0 0 0 0 0 0 0 0 127 0" result="hardAlpha"/>
<feOffset dy="1"/>
<feGaussianBlur stdDeviation="0.5"/>
<feComposite in2="hardAlpha" operator="arithmetic" k2="-1" k3="1"/>
<feColorMatrix type="matrix" values="0 0 0 0 0 0 0 0 0 0 0 0 0 0 0 0 0 0 0.25 0"/>
<feBlend mode="normal" in2="effect1_innerShadow" result="effect2_innerShadow"/>
</filter>
<filter id="filter1_d" x="8" y="101" width="166" height="19" filterUnits="userSpaceOnUse" color-interpolation-filters="sRGB">
<feFlood flood-opacity="0" result="BackgroundImageFix"/>
<feColorMatrix in="SourceAlpha" type="matrix" values="0 0 0 0 0 0 0 0 0 0 0 0 0 0 0 0 0 0 127 0"/>
<feOffset dy="4"/>
<feGaussianBlur stdDeviation="3"/>
<feColorMatrix type="matrix" values="0 0 0 0 0 0 0 0 0 0 0 0 0 0 0 0 0 0 0.23 0"/>
<feBlend mode="normal" in2="BackgroundImageFix" result="effect1_dropShadow"/>
<feBlend mode="normal" in="SourceGraphic" in2="effect1_dropShadow" result="shape"/>
</filter>
<linearGradient id="paint0_linear" x1="17" y1="24.5" x2="240" y2="110" gradientUnits="userSpaceOnUse">
<stop stop-color="#FF482F"/>
<stop offset="1" stop-color="#2F9AFF"/>
</linearGradient>
</defs>
</svg>
